<?xml version="1.0" standalone="no"?><!DOCTYPE svg PUBLIC "-//W3C//DTD SVG 1.1//EN" "http://www.w3.org/Graphics/SVG/1.1/DTD/svg11.dtd"><svg t="1597112312212" class="icon" viewBox="0 0 1024 1024" version="1.1" xmlns="http://www.w3.org/2000/svg" p-id="25234" xmlns:xlink="http://www.w3.org/1999/xlink" width="200" height="200"><defs><style type="text/css"></style></defs><path d="M506.552807 675.335581m77.140452-77.140451l14.509886-14.509887q77.140451-77.140451 154.280903 0l128.831922 128.831922q77.140451 77.140451 0 154.280903l-14.509887 14.509886q-77.140451 77.140451-154.280902 0l-128.831922-128.831922q-77.140451-77.140451 0-154.280902Z" fill="#6EC19D" opacity=".8" p-id="25235"></path><path d="M65.58795 234.337285m77.140451-77.140451l14.509887-14.509886q77.140451-77.140451 154.280902 0l128.831922 128.831922q77.140451 77.140451 0 154.280902l-14.509886 14.509887q-77.140451 77.140451-154.280903 0l-128.831922-128.831922q-77.140451-77.140451 0-154.280903Z" fill="#FF2C2C" opacity=".8" p-id="25236"></path><path d="M623.618004 631.313033m0-109.093072l0-20.520078q0-109.093072 109.093072-109.093073l182.195852 0q109.093072 0 109.093072 109.093073l0 20.520078q0 109.093072-109.093072 109.093072l-182.195852 0q-109.093072 0-109.093072-109.093072Z" fill="#B5D558" opacity=".8" p-id="25237"></path><path d="M0 631.313033m0-109.093072l0-20.520078q0-109.093072 109.093072-109.093073l182.195852 0q109.093072 0 109.093072 109.093073l0 20.520078q0 109.093072-109.093072 109.093072l-182.195852 0q-109.093072 0-109.093072-109.093072Z" fill="#D782A4" opacity=".8" p-id="25238"></path><path d="M688.152805 540.878206m-80.597886-80.597886l-15.246716-15.246716q-80.597885-80.597885 0-161.195771l134.726563-134.726563q80.597885-80.597885 161.19577 0l15.246717 15.246717q80.597885 80.597885 0 161.19577l-134.726563 134.726563q-80.597885 80.597885-161.195771 0Z" fill="#F0E22C" opacity=".8" p-id="25239"></path><path d="M234.375016 958.369054m-77.140451-77.140451l-14.509887-14.509886q-77.140451-77.140451 0-154.280903l128.831922-128.831922q77.140451-77.140451 154.280903 0l14.509886 14.509887q77.140451 77.140451 0 154.280902l-128.831922 128.831922q-77.140451 77.140451-154.280902 0Z" fill="#8F60C3" opacity=".8" p-id="25240"></path><path d="M642.134168 418.497378m-113.982622 0l-21.562114 0q-113.982622 0-113.982622-113.982623l0-190.532133q0-113.982622 113.982622-113.982622l21.562114 0q113.982622 0 113.982622 113.982622l0 190.532133q0 113.982622-113.982622 113.982623Z" fill="#FA9700" opacity=".8" p-id="25241"></path><path d="M631.313033 1024m-109.093072 0l-20.520078 0q-109.093072 0-109.093073-109.093072l0-182.195852q0-109.093072 109.093073-109.093072l20.520078 0q109.093072 0 109.093072 109.093072l0 182.195852q0 109.093072-109.093072 109.093072Z" fill="#71B5E1" opacity=".8" p-id="25242"></path></svg>